<?xml version="1.0" encoding="UTF-8" standalone="no"?>
<!-- Created with Inkscape (http://www.inkscape.org/) -->

<svg
   width="46.541824mm"
   height="11.862189mm"
   viewBox="0 0 46.541824 11.862189"
   version="1.1"
   id="svg88208"
   inkscape:version="1.1.1 (3bf5ae0d25, 2021-09-20)"
   sodipodi:docname="guns.svg"
   xmlns:inkscape="http://www.inkscape.org/namespaces/inkscape"
   xmlns:sodipodi="http://sodipodi.sourceforge.net/DTD/sodipodi-0.dtd"
   xmlns="http://www.w3.org/2000/svg"
   xmlns:svg="http://www.w3.org/2000/svg">
  <sodipodi:namedview
     id="namedview88210"
     pagecolor="#ffffff"
     bordercolor="#111111"
     borderopacity="1"
     inkscape:pageshadow="0"
     inkscape:pageopacity="0"
     inkscape:pagecheckerboard="1"
     inkscape:document-units="mm"
     showgrid="false"
     fit-margin-top="0"
     fit-margin-left="0"
     fit-margin-right="0"
     fit-margin-bottom="0"
     inkscape:zoom="0.46324355"
     inkscape:cx="396.11993"
     inkscape:cy="426.34161"
     inkscape:window-width="1366"
     inkscape:window-height="705"
     inkscape:window-x="-8"
     inkscape:window-y="-8"
     inkscape:window-maximized="1"
     inkscape:current-layer="layer1" />
  <defs
     id="defs88205" />
  <g
     inkscape:label="Layer 1"
     inkscape:groupmode="layer"
     id="layer1">
    <g
       id="g87932"
       transform="translate(-63.310101,-50.323602)">
      <path
         id="rect67324"
         style="fill:#222222;fill-opacity:1;fill-rule:evenodd;stroke-width:0.200002;stroke-linecap:round;stroke-linejoin:round"
         d="m 78.009976,50.343247 h 0.580561 l 0.03171,0.173268 0.750775,0.0034 0.05048,0.227175 h -1.413534 z"
         sodipodi:nodetypes="ccccccc" />
      <rect
         style="fill:#464646;fill-opacity:1;fill-rule:evenodd;stroke:none;stroke-width:0.0992261;stroke-linecap:round;stroke-linejoin:round;stroke-miterlimit:4;stroke-dasharray:none;stroke-dashoffset:0;stroke-opacity:1"
         id="rect43867"
         width="8.7125683"
         height="0.17848551"
         x="99.0504"
         y="53.235714" />
      <rect
         style="fill:#ae4416;fill-opacity:1;fill-rule:evenodd;stroke:none;stroke-width:0.256013;stroke-linecap:round;stroke-linejoin:round;stroke-miterlimit:4;stroke-dasharray:none;stroke-dashoffset:0;stroke-opacity:1"
         id="rect54329"
         width="0.79511267"
         height="1.2999461"
         x="97.856247"
         y="51.333981" />
      <path
         id="rect39141"
         style="fill:#cf511a;fill-rule:evenodd;stroke-width:0;stroke-linecap:round;stroke-linejoin:round;stroke-opacity:0.763052"
         d="M 91.943436,51.91287 H 98.62583 V 50.928444 H 91.943436 Z" />
      <rect
         style="fill:#464646;fill-opacity:1;fill-rule:evenodd;stroke:none;stroke-width:0.222859;stroke-linecap:round;stroke-linejoin:round;stroke-miterlimit:4;stroke-dasharray:none;stroke-dashoffset:0;stroke-opacity:1"
         id="rect45936"
         width="2.8979359"
         height="0.44347504"
         x="99.052032"
         y="51.32687" />
      <path
         id="rect82915"
         style="fill:#27282a;fill-rule:evenodd;stroke-width:0.1;stroke-linecap:round;stroke-linejoin:round"
         d="m 80.351145,54.669039 0.684681,-0.0032 c -0.153554,0.307107 -0.247158,0.759353 -0.0031,0.984424 -0.670584,-0.141083 0.04336,-0.801248 -0.855064,-0.861373 0.0389,-0.05257 0.106199,-0.09883 0.173497,-0.119851 z"
         sodipodi:nodetypes="ccccc" />
      <g
         id="g87086"
         transform="translate(0.01262083,-0.16407087)">
        <rect
           style="fill:#2e2e2d;fill-opacity:1;fill-rule:evenodd;stroke:none;stroke-width:0.0382889;stroke-linecap:round;stroke-linejoin:round;stroke-miterlimit:4;stroke-dasharray:none;stroke-dashoffset:0;stroke-opacity:1"
           id="rect77814"
           width="0.53007513"
           height="0.93394184"
           x="82.275826"
           y="54.684811"
           ry="0" />
        <rect
           style="fill:#2e2e2d;fill-opacity:1;fill-rule:evenodd;stroke:none;stroke-width:0.0238312;stroke-linecap:round;stroke-linejoin:round;stroke-miterlimit:4;stroke-dasharray:none;stroke-dashoffset:0;stroke-opacity:1"
           id="rect77814-1"
           width="0.17669171"
           height="1.0853919"
           x="82.616585"
           y="54.949852"
           ry="0" />
      </g>
      <g
         id="g43824"
         transform="translate(0.29406165,18.174004)">
        <rect
           style="fill:#241e20;fill-opacity:1;fill-rule:evenodd;stroke-width:0;stroke-linecap:round;stroke-linejoin:round;stroke-opacity:0.763052"
           id="rect21877"
           width="2.6326625"
           height="0.83888215"
           x="99.032928"
           y="34.034164" />
      </g>
      <path
         id="rect15035"
         style="fill:#cc531e;fill-opacity:1;fill-rule:evenodd;stroke-width:0;stroke-linecap:round;stroke-linejoin:round;stroke-opacity:0.763052"
         d="m 89.36875,52.13545 9.25053,0.07997 -0.02524,1.757385 c -3.528704,0.46852 -4.731611,0.316144 -7.053099,0.266301 -0.717063,-0.01539 -0.16582,0.142872 -1.509389,0.358956 -0.74685,0.120115 -0.66212,-0.277104 -0.713092,-0.275301 z"
         sodipodi:nodetypes="cccsscc" />
      <path
         id="rect21875"
         style="fill:#2d2e30;fill-opacity:1;fill-rule:evenodd;stroke-width:0;stroke-linecap:round;stroke-linejoin:round;stroke-opacity:0.763052"
         d="m 98.619282,50.934777 h 0.461526 v 2.960861 L 98.59404,53.9728 c 0,-1.02125 0.02524,-2.016777 0.02524,-3.038028 z"
         sodipodi:nodetypes="ccccc" />
      <path
         id="rect15031"
         style="fill:#cc531e;fill-opacity:1;fill-rule:evenodd;stroke-width:0;stroke-linecap:round;stroke-linejoin:round;stroke-opacity:0.763052"
         d="m 77.045697,55.192973 3.015794,-0.0047 -0.001,0.750192 c -0.504493,0.0775 -1.412852,1.568529 -1.892103,3.564393 -0.585547,-0.126209 -1.373027,-0.227175 -1.832367,-0.933942 -0.252866,-2.198559 2.089174,-2.515532 0.709676,-3.3759 z"
         sodipodi:nodetypes="cccccc" />
      <g
         id="g86603">
        <path
           id="rect25044"
           style="fill:#d27549;fill-rule:evenodd;stroke-width:0;stroke-linecap:round;stroke-linejoin:round;stroke-opacity:0.763052"
           d="m 63.310101,54.28523 8.540024,-1.334752 c 2.458452,0.34395 2.289195,-0.159416 3.764218,-0.269815 l 0.02505,0.24948 c 0,0 -2.794075,0.564035 -3.686107,0.244453 l -8.573949,1.295289 z"
           sodipodi:nodetypes="ccccccc" />
        <path
           id="rect12193"
           style="fill:#cc531e;fill-rule:evenodd;stroke-width:0;stroke-linecap:round;stroke-linejoin:round;stroke-opacity:0.763052"
           d="m 63.37934,54.469885 8.271377,-1.2613 3.984221,-0.278442 0.153792,2.25955 c -1.026495,-0.286072 -8.682031,2.620506 -11.955035,3.394584 -0.0589,-1.994092 -0.244003,-3.054242 -0.45435,-4.114392 z"
           sodipodi:nodetypes="ccccccc" />
      </g>
      <g
         id="g86592">
        <path
           id="rect15033"
           style="fill:#cc531e;fill-rule:evenodd;stroke-width:0;stroke-linecap:round;stroke-linejoin:round;stroke-opacity:0.763052"
           d="m 82.836518,54.582306 2.821592,-0.111417 c 0.242248,2.770483 1.35284,4.499945 2.630363,5.834402 l -1.829775,1.8805 c -2.162903,-1.773326 -3.444384,-4.248802 -3.62218,-7.603485 z"
           sodipodi:nodetypes="ccccc" />
        <g
           id="g43770"
           transform="translate(0.3029001,18.174004)">
          <path
             style="fill:none;stroke:#aa4316;stroke-width:0.264583px;stroke-linecap:round;stroke-linejoin:miter;stroke-opacity:1"
             d="m 84.343314,37.032106 c 0,0 0.660398,4.033774 2.498799,5.408112"
             id="path42045" />
          <path
             style="fill:none;stroke:#aa4316;stroke-width:0.264583px;stroke-linecap:round;stroke-linejoin:miter;stroke-opacity:1"
             d="m 83.66507,37.290911 c 0,0 0.660398,4.033774 2.498799,5.408112"
             id="path42045-3" />
        </g>
      </g>
      <path
         id="rect45938"
         style="fill:#464646;fill-rule:evenodd;stroke-width:0.270091;stroke-linecap:round;stroke-linejoin:round"
         d="m 101.94997,51.32687 0.9859,0.889607 -0.0181,1.24268 -0.96785,0.01785 z"
         sodipodi:nodetypes="ccccc" />
      <path
         id="rect46374"
         style="fill:#2b2c2e;fill-rule:evenodd;stroke-width:0.228938;stroke-linecap:round;stroke-linejoin:round"
         d="m 99.076861,52.037989 0.250129,0.170179 v 0.838883 l -0.250129,0.133247 z"
         sodipodi:nodetypes="ccccc" />
      <rect
         style="fill:#241e20;fill-opacity:1;fill-rule:evenodd;stroke-width:0;stroke-linecap:round;stroke-linejoin:round;stroke-opacity:0.763052"
         id="rect21877-6"
         width="4.0516229"
         height="0.83888215"
         x="102.92655"
         y="52.216476" />
      <path
         id="rect49001"
         style="fill:#454545;fill-rule:evenodd;stroke-width:0.195;stroke-linecap:round;stroke-linejoin:round"
         d="m 106.97828,52.193279 0.0649,-0.08062 0.36919,-1.789057 0.45821,0.0014 9e-5,1.663009 0.33912,-0.0089 v 1.210122 h -0.38374 l 0.009,0.249881 -0.50869,-10e-7 v -0.24988 h -0.35698 z"
         sodipodi:nodetypes="ccccccccccccc" />
      <g
         id="g86458"
         transform="translate(0.23504562,18.174004)">
        <path
           id="rect51388"
           style="fill:#232122;fill-rule:evenodd;stroke-width:0.248151;stroke-linecap:round;stroke-linejoin:round"
           d="m 107.97481,34.042472 h 1.24494 c 0.0387,0.01785 0.0773,0.01785 0.11601,0 h 0.28112 v 0.807648 h -0.28558 c -0.0312,-0.02677 -0.0669,-0.02231 -0.0937,0 h -1.26278 z"
           sodipodi:nodetypes="ccccccccc" />
        <circle
           style="fill:#ffffff;fill-opacity:1;fill-rule:evenodd;stroke:none;stroke-width:0.264999;stroke-linecap:round;stroke-linejoin:round;stroke-miterlimit:4;stroke-dasharray:none;stroke-dashoffset:0;stroke-opacity:1"
           id="path54054-6"
           cx="108.68429"
           cy="34.452988"
           r="0.1316331" />
        <circle
           style="fill:#ffffff;fill-opacity:1;fill-rule:evenodd;stroke:none;stroke-width:0.264999;stroke-linecap:round;stroke-linejoin:round;stroke-miterlimit:4;stroke-dasharray:none;stroke-dashoffset:0;stroke-opacity:1"
           id="path54054"
           cx="108.29831"
           cy="34.450756"
           r="0.1316331" />
      </g>
      <path
         id="rect80171"
         style="fill:#2d2e30;fill-rule:evenodd;stroke-width:0.1;stroke-linecap:round;stroke-linejoin:round"
         d="m 77.35369,50.671389 14.412994,0.05048 -0.0075,0.178502 0.211242,-6.71e-4 -0.02699,1.027558 -0.227755,0.0051 -0.01551,0.233455 -2.331421,-0.03036 -0.05029,2.187306 -6.739954,0.305155 -0.292192,0.813102 -0.01464,-0.551157 -0.163875,-0.253895 -1.898025,0.05258 -0.1444,0.515977 -4.276647,-0.01482 -0.174387,-2.50903 0.708486,-1.138478 z"
         sodipodi:nodetypes="ccccccccccccccccccc" />
      <g
         id="g67298"
         transform="translate(0.3029001,18.174004)">
        <rect
           style="opacity:1;fill:#191919;fill-opacity:1;fill-rule:evenodd;stroke:none;stroke-width:0.26217;stroke-linecap:round;stroke-linejoin:round;stroke-miterlimit:4;stroke-dasharray:none;stroke-dashoffset:0;stroke-opacity:1"
           id="rect63911"
           width="12.797527"
           height="0.22717506"
           x="76.015892"
           y="34.415752" />
        <rect
           style="fill:#191919;fill-opacity:1;fill-rule:evenodd;stroke:none;stroke-width:0.25589;stroke-linecap:round;stroke-linejoin:round;stroke-miterlimit:4;stroke-dasharray:none;stroke-dashoffset:0;stroke-opacity:1"
           id="rect63911-4"
           width="12.191727"
           height="0.22717506"
           x="76.886719"
           y="33.141048" />
        <rect
           style="fill:#191919;fill-opacity:1;fill-rule:evenodd;stroke:none;stroke-width:0.114081;stroke-linecap:round;stroke-linejoin:round;stroke-miterlimit:4;stroke-dasharray:none;stroke-dashoffset:0;stroke-opacity:1"
           id="rect63911-0"
           width="2.4231999"
           height="0.22717506"
           x="79.183716"
           y="33.746845" />
        <rect
           style="fill:#191919;fill-opacity:1;fill-rule:evenodd;stroke:none;stroke-width:0.21637;stroke-linecap:round;stroke-linejoin:round;stroke-miterlimit:4;stroke-dasharray:none;stroke-dashoffset:0;stroke-opacity:1"
           id="rect63911-8"
           width="2.801825"
           height="0.70676684"
           x="82.667061"
           y="33.519669" />
        <rect
           style="fill:#191919;fill-opacity:1;fill-rule:evenodd;stroke:none;stroke-width:0.0986451;stroke-linecap:round;stroke-linejoin:round;stroke-miterlimit:4;stroke-dasharray:none;stroke-dashoffset:0;stroke-opacity:1"
           id="rect63911-83"
           width="0.85821611"
           height="0.47959179"
           x="81.606918"
           y="33.62064" />
      </g>
      <path
         id="rect67322"
         style="fill:#191919;fill-opacity:1;fill-rule:evenodd;stroke-width:0.220386;stroke-linecap:round;stroke-linejoin:round"
         d="m 88.056158,50.603293 c 0.942356,-0.0099 1.10222,-0.01976 2.827068,-0.207501 0.34295,-0.06833 0.681525,0.126987 0.883458,0.326077 h -3.710526 z"
         sodipodi:nodetypes="ccccc" />
      <rect
         style="fill:none;fill-opacity:1;fill-rule:evenodd;stroke:#424143;stroke-width:0.100826;stroke-linecap:round;stroke-linejoin:round;stroke-miterlimit:4;stroke-dasharray:none;stroke-dashoffset:0;stroke-opacity:1"
         id="rect72483"
         width="2.1447165"
         height="1.4631914"
         x="80.092827"
         y="54.634739"
         ry="0.33371034" />
    </g>
  </g>
</svg>
