<?xml version="1.0" encoding="UTF-8" standalone="no"?>
<!-- Created with Inkscape (http://www.inkscape.org/) -->

<svg
   width="210mm"
   height="297mm"
   viewBox="0 0 210 297"
   version="1.1"
   id="svg43617"
   inkscape:version="1.1.1 (3bf5ae0d25, 2021-09-20)"
   sodipodi:docname="player_side_wiev.svg"
   xmlns:inkscape="http://www.inkscape.org/namespaces/inkscape"
   xmlns:sodipodi="http://sodipodi.sourceforge.net/DTD/sodipodi-0.dtd"
   xmlns="http://www.w3.org/2000/svg"
   xmlns:svg="http://www.w3.org/2000/svg">
  <sodipodi:namedview
     id="namedview43619"
     pagecolor="#ffffff"
     bordercolor="#111111"
     borderopacity="1"
     inkscape:pageshadow="0"
     inkscape:pageopacity="0"
     inkscape:pagecheckerboard="1"
     inkscape:document-units="mm"
     showgrid="false"
     inkscape:zoom="0.46324355"
     inkscape:cx="396.11993"
     inkscape:cy="560.1805"
     inkscape:window-width="1366"
     inkscape:window-height="705"
     inkscape:window-x="-8"
     inkscape:window-y="-8"
     inkscape:window-maximized="1"
     inkscape:current-layer="layer1" />
  <defs
     id="defs43614" />
  <g
     inkscape:label="Layer 1"
     inkscape:groupmode="layer"
     id="layer1">
    <g
       id="g43587"
       transform="translate(-341.02373,110.13266)">
      <g
         id="g49478-1-3-17"
         transform="translate(411.75772,4.2289237)">
        <path
           id="rect6518-9-3-2-8-5"
           style="fill:#0093a2;fill-opacity:1;fill-rule:evenodd;stroke-width:0;stroke-linecap:round;stroke-linejoin:round;stroke-opacity:0.763052"
           d="m 44.396639,11.116115 c 9.177534,-0.897244 8.894058,1.311825 20.076872,0.500649 0.762179,3.866716 0.333087,1.325349 -0.03133,3.031481 -13.925486,-0.581306 -14.058641,0.808131 -20.195924,0.612659 0,0 -1.171501,-1.270303 0.150378,-4.144789 z"
           sodipodi:nodetypes="ccccc" />
        <path
           id="rect8843-3-3-6-8-6"
           style="fill:#fae089;fill-opacity:1;fill-rule:evenodd;stroke-width:0;stroke-linecap:round;stroke-linejoin:round;stroke-opacity:0.763052"
           d="m 64.29551,12.138345 c 0.947955,-1.124797 2.00154,-0.533121 3.034,-0.812884 0.624434,-0.152208 0.694512,-0.385545 0.773025,-0.573596 0.334551,-0.438967 0.302304,-0.661965 0.528889,-0.588449 0.26239,0.08514 0.142791,1.055437 -0.234084,1.488341 0.666833,0.234323 3.182188,-0.270756 3.204694,0.143139 0.24863,0.727714 -2.576569,0.356886 -3.289175,0.778276 1.175309,0.254444 3.613716,-0.196042 3.44529,0.308121 0.08701,0.67558 -2.783587,0.24205 -3.520481,0.558491 0.821718,0.286687 3.185628,-0.197729 3.193998,0.437537 0.05289,0.595091 -2.133542,0.102199 -3.232004,0.338142 0.966024,0.424396 2.724273,0.06712 2.591751,0.70278 -0.218902,0.443931 -2.577757,-0.17118 -4.291656,-0.131492 -0.470797,-0.164861 -1.70676,0.05817 -2.147201,-0.556776 z"
           sodipodi:nodetypes="cccsccccccccccc" />
      </g>
      <g
         id="g49465-2-6-1"
         transform="translate(416.73833,1.906923)">
        <path
           id="rect6514-0-9-2-0-8"
           style="fill:#0cbf3a;fill-opacity:1;fill-rule:evenodd;stroke-width:0;stroke-linecap:round;stroke-linejoin:round;stroke-opacity:0.763052"
           d="m 35.710185,35.257219 c 2.78939,0.43752 3.480624,-1.114725 7.208588,0.332465 0,8.379098 -1.064531,9.645992 -1.064531,19.714922 -2.241887,0.16828 -2.215551,-0.82456 -4.457438,-0.65628 0.642548,-6.362736 -1.843047,-10.028947 -1.686619,-19.391107 z"
           sodipodi:nodetypes="ccccc" />
        <path
           id="rect6516-5-4-9-36-21"
           style="fill:#16c03d;fill-opacity:1;fill-rule:evenodd;stroke-width:0;stroke-linecap:round;stroke-linejoin:round;stroke-opacity:0.763052"
           d="m 37.396804,54.648326 c 0.825295,-1.91449 3.127805,-0.27323 4.457438,0.65628 -0.173451,4.49804 -1.344234,6.81571 -0.997336,11.57965 l -2.422227,-0.283749 c 0.02891,-3.32808 -0.676521,-8.517751 -1.037875,-11.952181 z"
           sodipodi:nodetypes="ccccc" />
        <path
           id="rect6524-9-0-3"
           style="fill:#15bc3c;fill-opacity:1;fill-rule:evenodd;stroke-width:0;stroke-linecap:round;stroke-linejoin:round;stroke-opacity:0.763052"
           d="m 38.434679,66.600507 2.359975,-0.09979 c 0.486592,1.30182 3.008419,0.50974 5.803011,2.14094 0,0 0.972157,0.55952 0.230799,1.1569 -3.807865,-0.1461 -8.480192,0.245623 -8.466131,-0.370759 -0.185703,-0.219531 0.18646,-1.721171 0.07235,-2.82729 z"
           sodipodi:nodetypes="ccccccc" />
      </g>
      <g
         id="g49470-9-94-9"
         transform="translate(414.44444,1.82328)">
        <path
           id="rect6514-0-9-4-8-8-8"
           style="fill:#0bc63b;fill-opacity:1;fill-rule:evenodd;stroke-width:0;stroke-linecap:round;stroke-linejoin:round;stroke-opacity:0.763052"
           d="m 28.544241,35.673336 c 2.78939,0.43752 3.623413,-1.04333 7.351377,0.40386 0,6.73703 -1.564291,9.78878 -1.564291,19.85771 -2.241887,0.16828 -2.215551,-0.82456 -4.457438,-0.65628 0,-6.43413 -1.486076,-10.24313 -1.329648,-19.60529 z"
           sodipodi:nodetypes="ccccc" />
        <path
           id="rect6516-5-4-7-8-5-4"
           style="fill:#0dc93f;fill-opacity:1;fill-rule:evenodd;stroke-width:0;stroke-linecap:round;stroke-linejoin:round;stroke-opacity:0.763052"
           d="m 29.873889,55.278626 c 0.825295,-1.91449 3.127805,-0.27323 4.457438,0.65628 -0.173451,4.49804 -1.344234,6.81571 -0.997336,11.57965 l -2.422227,-0.283749 c 0.02891,-3.32808 -0.676521,-8.517751 -1.037875,-11.952181 z"
           sodipodi:nodetypes="ccccc" />
        <path
           id="rect6524-8-8-7-21"
           style="fill:#0dc93f;fill-opacity:1;fill-rule:evenodd;stroke-width:0;stroke-linecap:round;stroke-linejoin:round;stroke-opacity:0.763052"
           d="m 30.911764,67.230807 2.359975,-0.09979 c 0.486592,1.30182 3.008419,0.50974 5.803011,2.14094 0,0 0.972157,0.55952 0.230799,1.1569 -3.807865,-0.1461 -8.480192,0.245623 -8.466131,-0.370759 -0.185703,-0.219531 0.18646,-1.721171 0.07235,-2.82729 z"
           sodipodi:nodetypes="ccccccc" />
      </g>
      <path
         id="rect6490-6-66-4"
         style="fill:#0794a8;fill-opacity:1;fill-rule:evenodd;stroke-width:0;stroke-linecap:round;stroke-linejoin:round;stroke-opacity:0.763052"
         d="m 450.31944,16.479536 c 3.88812,-1.368299 4.39875,-2.840217 10.38717,-1.457459 0.35907,9.148443 -1.31974,13.35667 -0.47835,22.47453 -5.07736,0.07557 -0.94541,1.076317 -8.23463,0.226438 0.55635,-4.286332 -0.84196,-9.639845 -1.67419,-21.243509 z"
         sodipodi:nodetypes="ccccc" />
      <path
         id="rect6730-7-6-3"
         style="fill:#fdce86;fill-opacity:1;fill-rule:evenodd;stroke-width:0;stroke-linecap:round;stroke-linejoin:round;stroke-opacity:0.763052"
         d="m 456.47628,4.6848437 c -0.75654,-0.165365 -1.47294,-0.357486 -3.01375,0 -1.15668,0.268362 -2.53449,2.4053354 -2.39198,5.5112173 0.10097,2.200451 1.57122,4.841343 3.09874,5.612187 1.05784,0.533824 1.49358,0.649398 2.30699,0.100967 1.41613,-0.954805 2.19004,-2.604002 2.19004,-5.713154 0,-3.1091499 -0.51294,-5.1446333 -2.19004,-5.5112173 z"
         sodipodi:nodetypes="sssssss" />
      <g
         id="g49474-6-9-8"
         transform="matrix(-1,0,0,1,481.50199,8.2758724)">
        <path
           id="rect6518-9-0-6-2"
           style="fill:#01aabb;fill-opacity:1;fill-rule:evenodd;stroke-width:0;stroke-linecap:round;stroke-linejoin:round;stroke-opacity:0.763052"
           d="m 27.369806,11.074296 c -9.177534,-0.897244 -8.894058,1.311825 -20.0768724,0.500649 -0.7621783,3.866716 -0.3330863,1.325349 0.031327,3.031481 13.9254854,-0.581306 14.0586404,0.808131 20.1959234,0.612659 0,0 3.392768,-2.835286 -0.150378,-4.144789 z"
           sodipodi:nodetypes="ccccc" />
        <path
           id="rect8843-3-2-4-81"
           style="fill:#fae089;fill-opacity:1;fill-rule:evenodd;stroke-width:0;stroke-linecap:round;stroke-linejoin:round;stroke-opacity:0.763052"
           d="M 7.4709353,12.096526 C 6.5229801,10.971729 5.4693953,11.563405 4.4369349,11.283642 3.8125006,11.131434 3.7424234,10.898097 3.6639098,10.710046 3.3293589,10.271079 3.3616063,10.048081 3.1350209,10.121597 c -0.2623898,0.08514 -0.1427907,1.055437 0.2340844,1.488341 -0.6668338,0.234323 -3.18218858,-0.270756 -3.20469396,0.143139 -0.24863046,0.727714 2.57656876,0.356886 3.28917486,0.778276 -1.1753097,0.254444 -3.61371598,-0.196042 -3.44528971,0.308121 -0.08700853,0.67558 2.78358641,0.24205 3.52048061,0.558491 -0.8217183,0.286687 -3.18562836,-0.197729 -3.19399779,0.437537 -0.0528947,0.595091 2.13354169,0.102199 3.23200339,0.338142 -0.9660239,0.424396 -2.72427233,0.06712 -2.59175089,0.70278 0.21890229,0.443931 2.57775719,-0.17118 4.29165599,-0.131492 0.4707968,-0.164861 1.7067598,0.05817 2.1472015,-0.556776 z"
           sodipodi:nodetypes="cccsccccccccccc" />
      </g>
    </g>
  </g>
</svg>
